<?xml version="1.0" encoding="iso-8859-1"?>
<!-- Generator: Adobe Illustrator 19.0.0, SVG Export Plug-In . SVG Version: 6.00 Build 0)  -->
<svg version="1.1" id="Layer_1" xmlns="http://www.w3.org/2000/svg" xmlns:xlink="http://www.w3.org/1999/xlink" x="0px" y="0px"
	 viewBox="0 0 512.009 512.009" style="enable-background:new 0 0 512.009 512.009;" xml:space="preserve">
<g>
	<g>
		<g>
			<path d="M29.568,41.63c1.664,1.673,3.849,2.5,6.033,2.5c2.185,0,4.369-0.828,6.033-2.5c3.336-3.328,3.336-8.73,0-12.066
				L29.568,17.498c-3.337-3.328-8.738-3.328-12.066,0c-3.337,3.337-3.337,8.738,0,12.066L29.568,41.63z"/>
			<path d="M34.133,59.738c0-4.71-3.823-8.533-8.533-8.533H8.533C3.823,51.204,0,55.027,0,59.738c0,4.719,3.823,8.533,8.533,8.533
				H25.6C30.31,68.271,34.133,64.457,34.133,59.738z"/>
			<path d="M59.742,34.138c4.71,0,8.533-3.823,8.533-8.533V8.538c0-4.71-3.823-8.533-8.533-8.533s-8.533,3.823-8.533,8.533v17.067
				C51.209,30.315,55.031,34.138,59.742,34.138z"/>
			<path d="M83.883,44.122c2.185,0,4.369-0.828,6.033-2.5l12.066-12.066c3.337-3.328,3.337-8.73,0-12.066
				c-3.328-3.328-8.73-3.328-12.066,0L77.85,29.555c-3.337,3.336-3.337,8.738,0,12.066C79.514,43.294,81.698,44.122,83.883,44.122z"
				/>
			<path d="M436.147,242.3c1.178,3.593,4.523,5.879,8.115,5.879c0.879,0,1.766-0.137,2.654-0.427
				c4.48-1.459,6.92-6.281,5.453-10.761c-10.172-31.087-29.03-58.496-54.537-79.266c-3.644-2.961-9.02-2.423-12.006,1.229
				c-2.97,3.661-2.423,9.028,1.229,12.006C410.018,189.666,427,214.327,436.147,242.3z"/>
			<path d="M41.634,77.854c-3.337-3.337-8.738-3.337-12.066,0L17.502,89.92c-3.337,3.337-3.337,8.738,0,12.066
				c1.664,1.664,3.849,2.5,6.033,2.5c2.185,0,4.369-0.836,6.033-2.5L41.634,89.92C44.971,86.583,44.971,81.182,41.634,77.854z"/>
			<path d="M355.823,151.249c1.178,0.555,2.423,0.819,3.652,0.819c3.191,0,6.246-1.801,7.714-4.881
				c2.014-4.258,0.196-9.344-4.062-11.366c-6.417-3.038-13.099-5.709-19.866-7.919c-4.454-1.485-9.293,0.973-10.761,5.453
				c-1.468,4.471,0.973,9.293,5.453,10.761C344.038,146.112,350.046,148.51,355.823,151.249z"/>
			<path d="M290.142,68.271c-20.045,0-38.904,2.458-57.481,7.501l-34.543-34.543c-2.466-2.466-6.17-3.174-9.361-1.826
				c-30.882,13.09-58.829,31.334-83.234,54.349c-6.69-6.989-18.586-18.893-39.748-40.047L53.709,65.771
				c0,0,39.919,39.919,45.244,45.244c0.171,0.222,0.367,0.427,0.572,0.631c3.328,3.328,8.755,3.311,12.092-0.026
				c22.818-22.818,49.229-41.045,78.549-54.212l33.971,33.971c2.219,2.227,5.461,3.038,8.465,2.15
				c18.569-5.513,37.393-8.192,57.54-8.192c112.922,0,204.8,91.87,204.8,204.8s-91.878,204.8-204.8,204.8s-204.8-91.87-204.8-204.8
				c0-19.123,2.637-37.743,7.578-55.509c0.759-1.314,1.263-2.731,1.254-4.207c16.102-53.393,53.521-98.449,105.54-124.092
				c4.233-2.082,5.973-7.202,3.883-11.426c-2.082-4.233-7.194-5.965-11.418-3.883c-52.685,25.958-91.588,70.289-110.694,123.213
				l-24.064-24.073c9.088-20.233,20.676-39.219,34.483-56.508c2.944-3.678,2.347-9.045-1.34-11.989
				c-3.678-2.953-9.054-2.355-11.989,1.34c-15.974,19.985-29.15,42.112-39.168,65.749c-1.357,3.2-0.631,6.904,1.826,9.361
				L75.819,232.7c-4.881,18.432-7.543,37.683-7.543,57.438c0,122.334,99.533,221.867,221.867,221.867
				s221.867-99.533,221.867-221.867S412.476,68.271,290.142,68.271z"/>
		</g>
	</g>
</g>
<g>
</g>
<g>
</g>
<g>
</g>
<g>
</g>
<g>
</g>
<g>
</g>
<g>
</g>
<g>
</g>
<g>
</g>
<g>
</g>
<g>
</g>
<g>
</g>
<g>
</g>
<g>
</g>
<g>
</g>
</svg>
